<?xml version="1.0" encoding="UTF-8" standalone="no"?> <svg width="64" height="64" viewBox="0 0 64 64" fill="none" xmlns="http://www.w3.org/2000/svg">
<path d="M61.5 32C61.4997 31.7304 61.4272 31.4658 61.29 31.2337C61.1528 31.0015 60.956 30.8104 60.72 30.68L51.57 25.68L60.72 20.68C60.9557 20.5507 61.1523 20.3604 61.2892 20.1291C61.4261 19.8977 61.4984 19.6338 61.4984 19.365C61.4984 19.0962 61.4261 18.8323 61.2892 18.601C61.1523 18.3696 60.9557 18.1793 60.72 18.05L32.72 2.70002C32.4984 2.58184 32.2511 2.52002 32 2.52002C31.7489 2.52002 31.5016 2.58184 31.28 2.70002L3.28 18C3.04433 18.1293 2.84775 18.3196 2.71082 18.551C2.57389 18.7823 2.50165 19.0462 2.50165 19.315C2.50165 19.5838 2.57389 19.8477 2.71082 20.0791C2.84775 20.3104 3.04433 20.5007 3.28 20.63L12.43 25.63L3.28 30.63C3.04459 30.7608 2.84844 30.9521 2.71187 31.1842C2.5753 31.4163 2.50328 31.6807 2.50328 31.95C2.50328 32.2193 2.5753 32.4837 2.71187 32.7158C2.84844 32.9479 3.04459 33.1392 3.28 33.27L12.43 38.27L3.28 43.27C3.04459 43.4008 2.84844 43.5921 2.71187 43.8242C2.5753 44.0563 2.50328 44.3207 2.50328 44.59C2.50328 44.8593 2.5753 45.1237 2.71187 45.3558C2.84844 45.5879 3.04459 45.7792 3.28 45.91L31.28 61.25C31.5016 61.3682 31.7489 61.43 32 61.43C32.2511 61.43 32.4984 61.3682 32.72 61.25L60.72 46C60.9554 45.8692 61.1516 45.6779 61.2881 45.4458C61.4247 45.2137 61.4967 44.9493 61.4967 44.68C61.4967 44.4107 61.4247 44.1463 61.2881 43.9142C61.1516 43.6821 60.9554 43.4908 60.72 43.36L51.57 38.36L60.72 33.36C60.9621 33.2265 61.1628 33.029 61.3003 32.7892C61.4379 32.5494 61.5069 32.2764 61.5 32V32ZM32 5.71002L56.88 19.34L32 33L7.12 19.34L32 5.71002ZM56.88 44.66L32 58.29L7.12 44.66L15.55 40L31.28 48.62C31.5016 48.7382 31.7489 48.8 32 48.8C32.2511 48.8 32.4984 48.7382 32.72 48.62L48.45 40L56.88 44.66ZM32 45.63L7.12 32L15.55 27.38L31.28 36C31.4996 36.1245 31.7476 36.1899 32 36.1899C32.2524 36.1899 32.5004 36.1245 32.72 36L48.45 27.38L56.88 32L32 45.63Z" fill="#999999"/>
<path d="M56.88 32L48.45 27.38L32 36.4L15.55 27.38L7.12 32L32 45.63L56.88 32Z" fill="#F2F2F2"/>
<path d="M48.45 40.04L32 49.05L15.55 40.04L7.12 44.66L32 58.29L56.88 44.66L48.45 40.04Z" fill="#F2F2F2"/>
<path d="M56.88 19.34L32 5.70996L7.12 19.34L32 32.98L56.88 19.34Z" fill="#F2F2F2"/>
</svg>
