<?xml version="1.0" encoding="UTF-8" standalone="no"?> <svg xmlns="http://www.w3.org/2000/svg" viewBox="0 0 64 64"><defs><style>.cls-1{fill:black;}.cls-2{fill:black;}</style></defs><g id="Layer_45" data-name="Layer 45"><polygon class="cls-1" points="3.71 19.07 32 35 60 19.07 32 3.86 3.71 19.07"/><path class="cls-2" d="M62.09,32,50.53,25.67l11.55-6.33L32,2.86,1.92,19.34l11.55,6.33L1.92,32l11.55,6.33L1.92,44.66,32,61.14,62.08,44.66,50.53,38.33ZM38.21,30.15l14-14,5.75,3.15Zm-19.67-4L36.89,7.82l3.27,1.79L21.8,28ZM42,10.61l3.27,1.79L26.89,30.75,23.63,29Zm5.1,2.79,3.26,1.79L32,33.54l-3.26-1.79Zm-12-6.58L16.71,25.17l-3.26-1.79L31.32,5.51,32,5.14Zm-10,2.12L11.62,22.38l-5.54-3ZM15.55,26.81l16.45,9,16.45-9L57.92,32,32,46.2,6.08,32ZM57.92,44.66,32,58.86,6.08,44.66l9.47-5.19,16.45,9,16.45-9Z"/></g></svg>